<svg xmlns="http://www.w3.org/2000/svg" width="24" height="24" viewBox="0 0 24 24"><path d="M1 17a1 1 0 01-1-1v-1.667A4.338 4.338 0 014.333 10h5.859a1 1 0 011 1 1 1 0 01-1 1H4.333A2.336 2.336 0 002 14.333V16a1 1 0 01-1 1zm6.666-8.334a4.338 4.338 0 01-4.333-4.333A4.338 4.338 0 017.666 0 4.338 4.338 0 0112 4.333a4.338 4.338 0 01-4.334 4.333zm0-6.666a2.336 2.336 0 00-2.333 2.333 2.336 2.336 0 002.333 2.333A2.336 2.336 0 0010 4.333 2.336 2.336 0 007.666 2zM21 24h-8a3 3 0 01-3-3v-5a3 3 0 013-3h8a3 3 0 013 3v5a3 3 0 01-3 3zm-8-9a1 1 0 00-1 1v5a1 1 0 001 1h8a1 1 0 001-1v-5a1 1 0 00-1-1z" fill="#fff"/><path d="M19.4 24a1 1 0 01-1-1V12.333a.288.288 0 00-.254-.334H15.8a.27.27 0 00-.2.283V23a1 1 0 01-1 1 1 1 0 01-1-1V12.333A2.264 2.264 0 0115.745 10H18.2a2.288 2.288 0 012.2 2.382V23a1 1 0 01-1 1z" fill="#fff"/><path fill="none" d="M0 0h24v24H0z"/></svg>