<svg xmlns="http://www.w3.org/2000/svg" width="32" height="32" viewBox="0 0 32 32"><path d="M1.485 22.762A1.484 1.484 0 010 21.278v-2.2a5.89 5.89 0 015.883-5.883h7.731A1.484 1.484 0 0115.1 14.68a1.485 1.485 0 01-1.485 1.485H5.884a2.917 2.917 0 00-2.914 2.914v2.2a1.483 1.483 0 01-1.485 1.483zm8.796-10.996a5.89 5.89 0 01-5.883-5.883A5.89 5.89 0 0110.281 0a5.89 5.89 0 015.883 5.883 5.89 5.89 0 01-5.883 5.883zm0-8.8A2.917 2.917 0 007.367 5.88a2.918 2.918 0 002.914 2.914 2.918 2.918 0 002.914-2.914 2.917 2.917 0 00-2.914-2.911zM28.536 32H16.66a3.468 3.468 0 01-3.464-3.464v-7.918a3.469 3.469 0 013.464-3.464h11.876A3.469 3.469 0 0132 20.618v7.918A3.468 3.468 0 0128.536 32zM16.66 20.124a.5.5 0 00-.495.494v7.918a.5.5 0 00.495.5h11.876a.5.5 0 00.495-.5v-7.918a.5.5 0 00-.495-.494z" fill="#10137e"/><path d="M25.765 32a1.485 1.485 0 01-1.485-1.485V16.44c.007-.179-.077-.271-.186-.278h-3.08a.241.241 0 00-.1.2v14.145A1.484 1.484 0 0119.431 32a1.485 1.485 0 01-1.485-1.485V16.44a3.162 3.162 0 012.982-3.242h3.253a3.194 3.194 0 013.067 3.315v14A1.484 1.484 0 0125.765 32z" fill="#10137e"/><path fill="none" d="M0 0h32v32H0z"/></svg>