<svg xmlns="http://www.w3.org/2000/svg" width="32" height="32" viewBox="0 0 32 32"><path fill="none" d="M0 0h32v32H0z"/><path d="M16 26.72A10.734 10.734 0 015.279 16 10.734 10.734 0 0116 5.278 10.734 10.734 0 0126.721 16 10.734 10.734 0 0116 26.72zm0-18.473A7.76 7.76 0 008.248 16 7.76 7.76 0 0016 23.751 7.76 7.76 0 0023.752 16 7.76 7.76 0 0016 8.247z" fill="#10137e"/><path d="M17.979 19.464a1.48 1.48 0 01-1.049-.435l-1.98-1.98A1.483 1.483 0 0114.516 16v-3.959A1.483 1.483 0 0116 10.557a1.483 1.483 0 011.484 1.484v3.344l1.545 1.545a1.484 1.484 0 010 2.1 1.48 1.48 0 01-1.05.434zM13.118 32a4.1 4.1 0 01-4.1-3.753l-.461-5.053A1.484 1.484 0 019.9 21.581a1.483 1.483 0 011.613 1.344l.462 5.054a1.148 1.148 0 001.149 1.052h5.73a1.149 1.149 0 001.156-1.051l.462-5.056a1.475 1.475 0 011.614-1.343 1.485 1.485 0 011.343 1.614l-.462 5.054A4.073 4.073 0 0118.844 32h-5.726zm8.859-21.575A1.485 1.485 0 0120.5 9.076l-.462-5.054a1.15 1.15 0 00-1.151-1.053h-5.75a1.151 1.151 0 00-1.148 1.052l-.462 5.054a1.486 1.486 0 01-1.613 1.343 1.483 1.483 0 01-1.343-1.613l.462-5.054A4.1 4.1 0 0113.133 0h5.758a4.1 4.1 0 014.1 3.753l.462 5.052a1.484 1.484 0 01-1.343 1.614 1.43 1.43 0 01-.133.006z" fill="#10137e"/></svg>