<svg xmlns="http://www.w3.org/2000/svg" width="24" height="24" viewBox="0 0 24 24"><path fill="none" d="M0 0h24v24H0z"/><path d="M14.912 23a.983.983 0 01-.575-.186.979.979 0 01-.39-.958l.5-2.94-2.13-2.08a.981.981 0 01-.247-1 .979.979 0 01.789-.666l2.954-.433 1.32-2.674a1.021 1.021 0 011.757 0l1.32 2.674 2.952.431a.979.979 0 01.79.667.98.98 0 01-.248 1l-2.137 2.082.5 2.939a.978.978 0 01-.391.958.979.979 0 01-1.031.073L18.008 21.5l-2.64 1.389a.982.982 0 01-.456.111zm.191-6.183l1.081 1.057a.979.979 0 01.281.865l-.254 1.492 1.34-.706a.979.979 0 01.913 0l1.339.7-.253-1.491a.978.978 0 01.281-.866l1.085-1.057-1.5-.219a.981.981 0 01-.737-.536L18.01 14.7l-.67 1.356a.981.981 0 01-.736.536zM9.081 23a.982.982 0 01-.456-.112l-2.64-1.389-2.64 1.389a.982.982 0 01-1.031-.074.979.979 0 01-.39-.958l.5-2.94-2.13-2.08a.981.981 0 01-.247-1 .979.979 0 01.789-.666l2.954-.433 1.32-2.674a1.02 1.02 0 011.756 0l1.32 2.674 2.953.431a.977.977 0 01.79.667.978.978 0 01-.248 1l-2.137 2.082.5 2.939a.979.979 0 01-.39.958.986.986 0 01-.573.186zm-3.1-3.587a.982.982 0 01.456.112l1.341.706-.255-1.492a.979.979 0 01.282-.866l1.085-1.057-1.5-.219a.983.983 0 01-.737-.536l-.669-1.356-.67 1.356a.978.978 0 01-.736.536l-1.5.22 1.082 1.057a.979.979 0 01.281.865l-.254 1.492 1.34-.706a.982.982 0 01.458-.109zm9.11-6.93a.982.982 0 01-.456-.112l-2.64-1.389-2.639 1.389a.982.982 0 01-1.031-.074.979.979 0 01-.39-.958l.5-2.94-2.13-2.08a.978.978 0 01-.248-1 .979.979 0 01.79-.666L9.8 4.22l1.321-2.675A.978.978 0 0112 1a.979.979 0 01.878.546l1.32 2.673 2.953.431a.98.98 0 01.79.667.979.979 0 01-.248 1L15.556 8.4l.5 2.939a.979.979 0 01-.39.958.981.981 0 01-.575.186zm-3.1-3.587a.976.976 0 01.456.112l1.341.706-.254-1.492a.978.978 0 01.282-.866l1.085-1.057-1.5-.218a.981.981 0 01-.737-.537L12 4.189l-.67 1.356a.977.977 0 01-.736.535l-1.5.221 1.082 1.056a.979.979 0 01.281.865l-.255 1.491 1.341-.705a.987.987 0 01.452-.108z" fill="#fff"/></svg>